<svg width="463" height="812" viewBox="0 0 463 812" fill="none" xmlns="http://www.w3.org/2000/svg">
<mask id="mask0_89_390" style="mask-type:alpha" maskUnits="userSpaceOnUse" x="0" y="0" width="463" height="812">
<rect x="462.215" width="812" height="462.215" rx="20" transform="rotate(90 462.215 0)" fill="url(#paint0_linear_89_390)"/>
</mask>
<g mask="url(#mask0_89_390)">
<rect x="462.215" width="812" height="462.215" rx="20" transform="rotate(90 462.215 0)" fill="url(#paint1_linear_89_390)"/>
<path fill-rule="evenodd" clip-rule="evenodd" d="M270.285 811.315H19.3475C8.30185 811.315 -0.652466 802.361 -0.652466 791.315L-0.652466 176.718C-0.652466 165.672 8.30185 156.718 19.3475 156.718H27.6819C82.1631 250.275 127.464 395.419 158.954 579.038C179.72 700.125 224.113 771.425 270.285 811.315Z" fill="url(#paint2_linear_89_390)" fill-opacity="0.1"/>
<path fill-rule="evenodd" clip-rule="evenodd" d="M554.336 842.896C484.048 750.036 352.543 612.143 204.707 563.504C153.972 546.812 103.933 535.382 55.1554 524.24C-40.2922 502.437 -130.913 481.737 -212.483 424.871L-212.483 827.94C-212.483 838.985 -203.529 847.94 -192.483 847.94L541.057 847.94C546.153 847.94 550.804 846.034 554.336 842.896Z" fill="url(#paint3_linear_89_390)" fill-opacity="0.1"/>
<path fill-rule="evenodd" clip-rule="evenodd" d="M729.743 871.506C686.903 772.767 642.535 670.506 453.19 608.211C396.579 589.585 333.331 571.986 266.401 553.361C57.3879 495.2 -187.544 427.044 -378.47 286.441L-378.47 889.698C-378.47 900.744 -369.516 909.698 -358.47 909.698L721.178 909.698C730.166 909.698 737.769 903.77 740.29 895.61C736.732 887.615 733.243 879.573 729.743 871.506Z" fill="url(#paint4_linear_89_390)" fill-opacity="0.1"/>
</g>
<defs>
<linearGradient id="paint0_linear_89_390" x1="1258.21" y1="15.5803" x2="533.98" y2="527.841" gradientUnits="userSpaceOnUse">
<stop stop-color="#6956EA"/>
<stop offset="1" stop-color="#8978FF"/>
</linearGradient>
<linearGradient id="paint1_linear_89_390" x1="1258.21" y1="15.5803" x2="533.98" y2="527.841" gradientUnits="userSpaceOnUse">
<stop stop-color="#6956EA"/>
<stop offset="1" stop-color="#8978FF"/>
</linearGradient>
<linearGradient id="paint2_linear_89_390" x1="194.558" y1="876.825" x2="4.20714" y2="288.817" gradientUnits="userSpaceOnUse">
<stop stop-color="white"/>
<stop offset="1" stop-color="white" stop-opacity="0"/>
</linearGradient>
<linearGradient id="paint3_linear_89_390" x1="518.065" y1="827.057" x2="471.151" y2="431.33" gradientUnits="userSpaceOnUse">
<stop stop-color="white"/>
<stop offset="1" stop-color="white" stop-opacity="0"/>
</linearGradient>
<linearGradient id="paint4_linear_89_390" x1="687.373" y1="878.934" x2="617.604" y2="296.114" gradientUnits="userSpaceOnUse">
<stop stop-color="white"/>
<stop offset="1" stop-color="white" stop-opacity="0"/>
</linearGradient>
</defs>
</svg>
