<svg width="23" height="11" viewBox="0 0 23 11" fill="none" xmlns="http://www.w3.org/2000/svg">
<path fill-rule="evenodd" clip-rule="evenodd" d="M5.94975 0.292893C5.55922 -0.0976311 4.92606 -0.0976311 4.53553 0.292893L0.292893 4.53553C-0.0976311 4.92606 -0.0976311 5.55922 0.292893 5.94975C0.292991 5.94985 0.293089 5.94994 0.293186 5.95004L4.53553 10.1924C4.92606 10.5829 5.55922 10.5829 5.94975 10.1924C6.34027 9.80186 6.34027 9.1687 5.94975 8.77817L3.41421 6.24264H21.2426C21.7949 6.24264 22.2426 5.79493 22.2426 5.24264C22.2426 4.69036 21.7949 4.24264 21.2426 4.24264H3.41421L5.94975 1.70711C6.34027 1.31658 6.34027 0.683417 5.94975 0.292893Z" fill="#7E8EAA"/>
</svg>
