<svg width="93" height="93" viewBox="0 0 93 93" fill="none" xmlns="http://www.w3.org/2000/svg">
<path d="M46.5 0C20.832 0 0 20.832 0 46.5C0 72.168 20.832 93 46.5 93C72.168 93 93 72.168 93 46.5C93 20.832 72.168 0 46.5 0ZM33.8985 66.4485L17.205 49.755C16.7745 49.3245 16.433 48.8134 16.2 48.2509C15.967 47.6884 15.8471 47.0856 15.8471 46.4768C15.8471 45.8679 15.967 45.2651 16.2 44.7026C16.433 44.1401 16.7745 43.629 17.205 43.1985C17.6355 42.768 18.1466 42.4265 18.7091 42.1935C19.2716 41.9605 19.8744 41.8406 20.4833 41.8406C21.0921 41.8406 21.6949 41.9605 22.2574 42.1935C22.8199 42.4265 23.331 42.768 23.7615 43.1985L37.2 56.5905L69.192 24.5985C70.0614 23.7291 71.2407 23.2406 72.4702 23.2406C73.6998 23.2406 74.8791 23.7291 75.7485 24.5985C76.618 25.4679 77.1064 26.6472 77.1064 27.8768C77.1064 29.1063 76.618 30.2856 75.7485 31.155L40.455 66.4485C40.0248 66.8796 39.5138 67.2216 38.9513 67.4549C38.3888 67.6883 37.7858 67.8084 37.1768 67.8084C36.5677 67.8084 35.9647 67.6883 35.4022 67.4549C34.8397 67.2216 34.3287 66.8796 33.8985 66.4485Z" fill="#E6F3EC"/>
</svg>
