<svg width="16" height="14" viewBox="0 0 16 14" fill="none" xmlns="http://www.w3.org/2000/svg">
<path d="M4.26665 10.5606C2.92312 9.60661 1.85995 8.36576 1.25919 7.58221C1.09119 7.36592 1 7.09985 1 6.82598C1 6.55211 1.09119 6.28603 1.25919 6.06974C2.34639 4.65048 4.9548 1.72821 8.00014 1.72821C9.36624 1.72821 10.6435 2.31587 11.7358 3.09286" stroke="#A9A9A9" stroke-width="1.5" stroke-linecap="round" stroke-linejoin="round"/>
<path d="M6.54352 11.7075C7.01627 11.8482 7.50667 11.9208 7.99992 11.923C11.0453 11.923 13.6537 9.00074 14.7409 7.58148C14.9088 7.36499 14.9999 7.09875 14.9998 6.82475C14.9997 6.55075 14.9083 6.2846 14.7401 6.06828C14.3581 5.56981 13.9482 5.0933 13.5124 4.641M9.55099 5.28692C9.34876 5.08132 9.10783 4.9178 8.84209 4.80578C8.57635 4.69377 8.29106 4.63547 8.00268 4.63427C7.7143 4.63306 7.42854 4.68896 7.16187 4.79874C6.8952 4.90853 6.65291 5.07003 6.44897 5.27392C6.24503 5.47781 6.08347 5.72007 5.97362 5.98671C5.86378 6.25335 5.80781 6.53911 5.80895 6.82749C5.81009 7.11587 5.86831 7.40117 5.98027 7.66693C6.09222 7.9327 6.25569 8.17367 6.46123 8.37594L9.55099 5.28692ZM2.17432 12.6512L13.8255 1L2.17432 12.6512Z" stroke="#A9A9A9" stroke-width="1.5" stroke-linecap="round" stroke-linejoin="round"/>
</svg>
