<svg width="15" height="14" viewBox="0 0 15 14" fill="none" xmlns="http://www.w3.org/2000/svg">
<path d="M5.54364 11.7075C6.01639 11.8482 6.5068 11.9208 7.00004 11.923C10.0454 11.923 12.6538 9.00074 13.741 7.58148C13.9089 7.36499 14 7.09875 13.9999 6.82475C13.9998 6.55075 13.9084 6.2846 13.7403 6.06828C13.3582 5.56981 12.9483 5.0933 12.5125 4.641M8.55111 5.28692C8.34888 5.08132 8.10795 4.9178 7.84221 4.80578C7.57647 4.69377 7.29119 4.63547 7.00281 4.63427C6.71443 4.63306 6.42866 4.68896 6.16199 4.79874C5.89532 4.90853 5.65303 5.07003 5.44909 5.27392C5.24515 5.47781 5.08359 5.72007 4.97375 5.98671C4.8639 6.25335 4.80793 6.53911 4.80907 6.82749C4.81021 7.11587 4.86844 7.40117 4.98039 7.66693C5.09234 7.9327 5.25581 8.17367 5.46135 8.37594L8.55111 5.28692ZM1.17444 12.6512L12.8256 1L1.17444 12.6512Z" stroke="#6956EA" stroke-width="1.5" stroke-linecap="round" stroke-linejoin="round"/>
</svg>
