<svg width="29" height="21" viewBox="0 0 29 21" fill="none" xmlns="http://www.w3.org/2000/svg">
<path d="M12.5115 5.50488C12.5927 5.4234 12.6893 5.35876 12.7956 5.31465C12.9019 5.27055 13.0158 5.24784 13.1309 5.24784C13.246 5.24784 13.3599 5.27055 13.4662 5.31465C13.5725 5.35876 13.669 5.4234 13.7503 5.50488L17.5054 9.26171L21.2605 5.50488C21.4248 5.3406 21.6476 5.2483 21.8799 5.2483C22.1122 5.2483 22.335 5.3406 22.4993 5.50488C22.6636 5.66916 22.7559 5.89198 22.7559 6.12431C22.7559 6.35664 22.6636 6.57946 22.4993 6.74374L18.7425 10.4988L22.4993 14.2539C22.6636 14.4182 22.7559 14.641 22.7559 14.8733C22.7559 15.1057 22.6636 15.3285 22.4993 15.4928C22.335 15.657 22.1122 15.7493 21.8799 15.7493C21.6476 15.7493 21.4248 15.657 21.2605 15.4928L17.5054 11.7359L13.7503 15.4928C13.5863 15.657 13.3637 15.7494 13.1315 15.7496C12.8993 15.7498 12.6766 15.6577 12.5123 15.4936C12.348 15.3296 12.2557 15.107 12.2555 14.8748C12.2553 14.6426 12.3474 14.4199 12.5115 14.2556L16.2683 10.4988L12.5115 6.74374C12.43 6.66247 12.3653 6.56592 12.3212 6.45963C12.2771 6.35334 12.2544 6.23939 12.2544 6.12431C12.2544 6.00923 12.2771 5.89528 12.3212 5.78899C12.3653 5.6827 12.43 5.58615 12.5115 5.50488ZM8.03196 1.16187C8.84033 0.414785 9.90064 -9.14437e-05 11.0014 1.51182e-08H23.6297C24.7899 1.51182e-08 25.9026 0.460884 26.7229 1.28126C27.5433 2.10164 28.0042 3.21432 28.0042 4.37451V16.6231C28.0042 17.7833 27.5433 18.896 26.7229 19.7164C25.9026 20.5367 24.7899 20.9976 23.6297 20.9976H11.0014C9.90064 20.9977 8.84033 20.5828 8.03196 19.8358L1.40546 13.7115C0.962263 13.3019 0.60861 12.805 0.366736 12.2521C0.124863 11.6992 0 11.1023 0 10.4988C0 9.89534 0.124863 9.29839 0.366736 8.74551C0.60861 8.19263 0.962263 7.69577 1.40546 7.28618L8.03196 1.16187ZM11.0014 1.7498C10.3409 1.75012 9.70485 1.99942 9.22007 2.44797L2.59357 8.57228C2.32771 8.81803 2.11557 9.11613 1.97048 9.44782C1.82539 9.77952 1.75049 10.1376 1.75049 10.4997C1.75049 10.8617 1.82539 11.2199 1.97048 11.5516C2.11557 11.8833 2.32771 12.1813 2.59357 12.4271L9.22007 18.5514C9.70512 18.9993 10.3412 19.248 11.0014 19.2478H23.6297C24.3258 19.2478 24.9934 18.9713 25.4856 18.4791C25.9779 17.9868 26.2544 17.3192 26.2544 16.6231V4.37451C26.2544 3.67839 25.9779 3.01079 25.4856 2.51856C24.9934 2.02633 24.3258 1.7498 23.6297 1.7498H11.0014Z" fill="#3A3D42"/>
</svg>
