<svg width="16" height="12" viewBox="0 0 16 12" fill="none" xmlns="http://www.w3.org/2000/svg">
<path d="M14.7411 5.34157C15.0863 5.79306 15.0863 6.40257 14.7411 6.85333C13.6539 8.2726 11.0455 11.1949 8.00011 11.1949C4.95475 11.1949 2.34631 8.2726 1.2591 6.85333C1.09116 6.63715 1 6.3712 1 6.09745C1 5.8237 1.09116 5.55775 1.2591 5.34157C2.34631 3.92229 4.95475 1 8.00011 1C11.0455 1 13.6539 3.92229 14.7411 5.34157V5.34157Z" stroke="#6956EA" stroke-width="1.5" stroke-linecap="round" stroke-linejoin="round"/>
<path d="M8.00005 8.28208C9.20658 8.28208 10.1847 7.304 10.1847 6.09746C10.1847 4.89093 9.20658 3.91284 8.00005 3.91284C6.79352 3.91284 5.81543 4.89093 5.81543 6.09746C5.81543 7.304 6.79352 8.28208 8.00005 8.28208Z" stroke="#6956EA" stroke-width="1.5" stroke-linecap="round" stroke-linejoin="round"/>
</svg>
